<?xml version="1.0" standalone="no"?><!DOCTYPE svg PUBLIC "-//W3C//DTD SVG 1.1//EN" "http://www.w3.org/Graphics/SVG/1.1/DTD/svg11.dtd"><svg t="1704246876742" class="icon" viewBox="0 0 1024 1024" version="1.1" xmlns="http://www.w3.org/2000/svg" p-id="34448" xmlns:xlink="http://www.w3.org/1999/xlink" width="32" height="32"><path d="M902.978 735.755l-108.188 0.03V290.534c0-45.134-35.49-81.72-79.27-81.72h-26.74a37.695 37.695 0 0 0-2.376-0.083l-293.638 0.082H291.61v0.028l-7.15 0.002v-78.825h-0.15l-0.01-33.46c-0.004-21.912-17.237-39.672-38.493-39.668-21.254 0.005-38.482 17.77-38.478 39.683l0.01 33.445h-0.01v78.847l-108.204 0.03c-21.254 0.005-38.481 17.771-38.478 39.684 0.005 21.911 17.238 39.672 38.494 39.668l108.188-0.03v445.251c0 45.134 35.49 81.72 79.27 81.72h26.74c0.786 0.05 1.577 0.083 2.376 0.083l293.638-0.082H710.51v-0.028l7.15-0.002v78.825h0.15l0.01 33.46c0.004 21.912 17.237 39.672 38.493 39.668 21.254-0.005 38.482-17.77 38.478-39.683l-0.01-33.445h0.01v-78.847l108.204-0.03c21.254-0.005 38.481-17.771 38.478-39.684-0.004-21.911-17.238-39.67-38.494-39.667z m-293.77 0.083H325.383c-20.743 0-40.92-20.966-40.92-42.35V288.193l108.451-0.03h283.828c20.742 0 40.919 20.965 40.919 42.349v405.295l-108.451 0.03z" p-id="34449"></path></svg>