<?xml version="1.0" standalone="no"?><!DOCTYPE svg PUBLIC "-//W3C//DTD SVG 1.1//EN" "http://www.w3.org/Graphics/SVG/1.1/DTD/svg11.dtd"><svg t="1703730102763" class="icon" viewBox="0 0 1024 1024" version="1.1" xmlns="http://www.w3.org/2000/svg" p-id="4354" id="mx_n_1703730102764" xmlns:xlink="http://www.w3.org/1999/xlink" width="32" height="32"><path d="M504.149333 130.773333c-18.986667 0.682667-34.56 6.997333-46.805333 18.944-12.245333 11.946667-18.688 26.922667-19.370667 44.842667v515.285333L261.973333 572.288a94.421333 94.421333 0 0 0-56.448-20.906667 99.2 99.2 0 0 0-58.453333 16.896c-9.557333 7.978667-15.317333 17.92-17.322667 29.909334a41.386667 41.386667 0 0 0 8.106667 32.896l184.192 239.189333c6.058667 8.661333 13.696 15.104 22.869333 19.456 9.173333 4.266667 18.816 6.442667 29.013334 6.442667h520.874666v-319.914667c0-13.952-4.266667-26.581333-12.714666-37.888a62.250667 62.250667 0 0 0-34.090667-22.912l-209.578667-61.824a99.797333 99.797333 0 0 1-50.346666-34.389333 91.136 91.136 0 0 1-18.858667-57.301334V194.56a63.701333 63.701333 0 0 0-19.328-44.842667 66.56 66.56 0 0 0-45.781333-18.944l0.042666 0.042667zM348.501333 558.336l24.405334 18.944V194.56c0-23.253333 5.589333-44.842667 16.810666-64.768 11.178667-19.925333 27.136-35.84 47.786667-47.829333a129.92 129.92 0 0 1 66.133333-17.962667c23.424 0 45.44 5.973333 66.133334 17.92 20.693333 11.989333 36.650667 27.946667 47.829333 47.872 11.221333 19.925333 16.810667 41.514667 16.810667 64.768v167.466667c0 7.296 2.048 13.781333 6.101333 19.413333 4.096 5.632 9.856 9.429333 17.28 11.434667l209.621333 61.824a129.28 129.28 0 0 1 66.645334 45.866666c16.64 21.930667 25.258667 47.189333 25.941333 75.733334v319.914666c-0.682667 17.92-7.125333 32.896-19.328 44.842667-12.245333 11.946667-27.477333 18.261333-45.781333 18.944H373.973333a129.109333 129.109333 0 0 1-103.765333-50.816l-184.149333-240.213333a114.858667 114.858667 0 0 1-18.816-39.338667 100.437333 100.437333 0 0 1-1.536-43.861333c2.730667-14.933333 8.106667-28.586667 16.298666-40.874667a101.546667 101.546667 0 0 1 31.530667-30.378667c29.866667-19.242667 61.866667-28.074667 96.128-26.410666a162.986667 162.986667 0 0 1 93.098667 34.389333l45.738666 35.84z" fill-opacity=".65" p-id="4355"></path></svg>