<?xml version="1.0" standalone="no"?><!DOCTYPE svg PUBLIC "-//W3C//DTD SVG 1.1//EN" "http://www.w3.org/Graphics/SVG/1.1/DTD/svg11.dtd"><svg t="1703731531296" class="icon" viewBox="0 0 1024 1024" version="1.1" xmlns="http://www.w3.org/2000/svg" p-id="19282" xmlns:xlink="http://www.w3.org/1999/xlink" width="32" height="32"><path d="M256 959.715556v-128a128 128 0 1 1 256 0v128h63.715556a128 128 0 0 0 128-128V192.284444a127.431111 127.431111 0 0 0-128-128H192.284444a128 128 0 0 0-128 128v639.431112a128 128 0 0 0 128 128H256M320.284444 1024H192.284444A192.284444 192.284444 0 0 1 0 831.715556V192.284444A192.284444 192.284444 0 0 1 192.284444 0h383.431112a192.284444 192.284444 0 0 1 192.284444 192.284444v639.431112A192.284444 192.284444 0 0 1 575.715556 1024H448.284444v-192.284444a64.284444 64.284444 0 0 0-128 0V1024z" p-id="19283"></path><path d="M284.444444 358.4H217.884444a60.871111 60.871111 0 0 1-60.302222-60.302222V233.813333a60.871111 60.871111 0 0 1 60.302222-60.302222H284.444444a60.302222 60.302222 0 0 1 56.888889 60.302222v64.284445A60.302222 60.302222 0 0 1 284.444444 358.4zM217.884444 230.4a3.413333 3.413333 0 0 0-3.413333 3.413333v64.284445L284.444444 301.511111V233.813333z"  p-id="19284"></path><path d="M284.444444 614.4H217.884444a60.871111 60.871111 0 0 1-60.302222-60.302222V489.813333a60.871111 60.871111 0 0 1 60.302222-60.302222H284.444444a60.302222 60.302222 0 0 1 56.888889 60.302222v64.284445a60.302222 60.302222 0 0 1-56.888889 60.302222zM217.884444 486.4a3.413333 3.413333 0 0 0-3.413333 3.413333v64.284445L284.444444 557.511111V489.813333z" p-id="19285"></path><path d="M538.168889 358.4H473.884444a60.871111 60.871111 0 0 1-60.302222-60.302222V233.813333a60.871111 60.871111 0 0 1 60.302222-60.302222h64.284445a60.871111 60.871111 0 0 1 60.302222 60.302222v64.284445A60.871111 60.871111 0 0 1 538.168889 358.4zM473.884444 230.4a3.413333 3.413333 0 0 0-3.413333 3.413333v64.284445l67.697778 3.413333 3.413333-67.697778z" p-id="19286"></path><path d="M538.168889 614.4H473.884444a60.871111 60.871111 0 0 1-60.302222-60.302222V489.813333a60.871111 60.871111 0 0 1 60.302222-60.302222h64.284445a60.871111 60.871111 0 0 1 60.302222 60.302222v64.284445a60.871111 60.871111 0 0 1-60.302222 60.302222zM473.884444 486.4a3.413333 3.413333 0 0 0-3.413333 3.413333v64.284445l67.697778 3.413333 3.413333-67.697778z" p-id="19287"></path><path d="M768 264.533333v68.835556l53.475556 23.324444c102.4 47.217778 134.257778 82.488889 138.24 92.728889v382.293334a128 128 0 0 1-128 128h-113.777778A190.008889 190.008889 0 0 1 576.284444 1024h255.431112A192.284444 192.284444 0 0 0 1024 831.715556V447.715556c0-73.386667-159.288889-145.635556-256-183.182223z" p-id="19288"></path></svg>