<?xml version="1.0" standalone="no"?><!DOCTYPE svg PUBLIC "-//W3C//DTD SVG 1.1//EN" "http://www.w3.org/Graphics/SVG/1.1/DTD/svg11.dtd"><svg t="1703743822439" class="icon" viewBox="0 0 1024 1024" version="1.1" xmlns="http://www.w3.org/2000/svg" p-id="24588" xmlns:xlink="http://www.w3.org/1999/xlink" width="32" height="32"><path d="M489.6 263.4h-73.4v306.4h73.4c53.5 0 92.6-12.5 117.2-37 24-25.1 36.1-63.8 36.1-116.2 0-53.7-12-93-36.1-116.9-24.6-24.4-63.7-36.3-117.2-36.3z m0 0" p-id="24589"></path><path d="M752 104.3H272c-53.7 0-97.5 43.9-97.5 97.5v620.3c0 53.7 43.9 97.5 97.5 97.5h480c38.4 0 71.7-22.4 87.6-54.7H278.5c-20 0-36.5-16.4-36.5-36.5v-46.1c0-20 16.4-36.5 36.5-36.5h439c72.7 0 132.1-59.4 132.1-132.1V201.8c0-53.6-44-97.5-97.6-97.5z m-91 467.9c-36.1 38.1-88.4 57.2-158.1 57.2h-157V203.8h157c69.7 0 122 19.1 158.1 57.2 34.2 35.7 51.8 87.6 51.8 155.6 0 67.5-17.6 119.3-51.8 155.6z m0 0" p-id="24590"></path></svg>