<?xml version="1.0" standalone="no"?><!DOCTYPE svg PUBLIC "-//W3C//DTD SVG 1.1//EN" "http://www.w3.org/Graphics/SVG/1.1/DTD/svg11.dtd"><svg t="1701757803531" class="icon" viewBox="0 0 1024 1024" version="1.1" xmlns="http://www.w3.org/2000/svg" p-id="15546" id="mx_n_1701757803532" width="32" height="32" xmlns:xlink="http://www.w3.org/1999/xlink"><path d="M585.63333689 394.42097241l215.64418528-215.6441853 43.93662894 43.93662894-215.64418528 215.64547983z" p-id="15547"></path><path d="M547.29817505 476.61509088l0.07508322-62.13783703 248.61607506 0.3042165-0.07637776 62.13783703z" p-id="15548"></path><path d="M547.07810355 228.07021543l62.13783704-0.07637776 0.30421648 248.61607506-62.13783704 0.07637776zM178.78196528 801.29435117l215.64418528-215.64418528 43.93792348 43.93792348-215.64418529 215.64418528z" p-id="15549"></path><path d="M227.9847759 609.20817335l0.07637775-62.13783703 248.61607506 0.30421648-0.07637774 62.13783705z" p-id="15550"></path><path d="M414.46819209 547.40044357l62.13783703-0.07637776 0.30292195 248.61607508-62.13783703 0.07637774zM957.25643852 692.93761422h62.13783703v326.28837136h-62.13783703z" p-id="15551"></path><path d="M692.98939575 957.20465698h326.28837136v62.13783705H692.98939575zM4.03612761 4.1137999h62.13783703v326.28837135h-62.13783703z" p-id="15552"></path><path d="M4.15263605 3.99729147h326.28837136v62.13783703H4.15263605zM692.98939575 3.99729147h326.28837136v62.13783703H692.98939575z" p-id="15553"></path><path d="M957.25643852 4.1137999h62.13783703v326.28837135h-62.13783703zM4.15263605 957.20465698h326.28837136v62.13783705H4.15263605z" p-id="15554"></path><path d="M4.03612761 692.93761422h62.13783703v326.28837136h-62.13783703z" p-id="15555"></path></svg>