<?xml version="1.0" standalone="no"?><!DOCTYPE svg PUBLIC "-//W3C//DTD SVG 1.1//EN" "http://www.w3.org/Graphics/SVG/1.1/DTD/svg11.dtd"><svg t="1704246828380" class="icon" viewBox="0 0 1024 1024" version="1.1" xmlns="http://www.w3.org/2000/svg" p-id="33480" xmlns:xlink="http://www.w3.org/1999/xlink" width="32" height="32"><path d="M789.333333 298.666667h-21.333333v-58.666667A69.546667 69.546667 0 0 0 698.666667 170.666667h-373.333334A69.546667 69.546667 0 0 0 256 240V298.666667h-21.333333a128 128 0 0 0-128 128v192a128 128 0 0 0 128 128h21.333333v75.52A95.146667 95.146667 0 0 0 351.146667 917.333333h321.706666A95.146667 95.146667 0 0 0 768 822.186667V746.666667h21.333333a128 128 0 0 0 128-128v-192a128 128 0 0 0-128-128z m-490.666666-58.666667A26.666667 26.666667 0 0 1 325.333333 213.333333h373.333334A26.666667 26.666667 0 0 1 725.333333 240V298.666667H298.666667z m426.666666 582.186667A52.693333 52.693333 0 0 1 672.853333 874.666667H351.146667A52.693333 52.693333 0 0 1 298.666667 822.186667v-193.706667A52.693333 52.693333 0 0 1 351.146667 576h321.706666A52.693333 52.693333 0 0 1 725.333333 628.48zM874.666667 618.666667a85.333333 85.333333 0 0 1-85.333334 85.333333h-21.333333v-75.52A95.146667 95.146667 0 0 0 672.853333 533.333333H351.146667A95.146667 95.146667 0 0 0 256 628.48V704h-21.333333a85.333333 85.333333 0 0 1-85.333334-85.333333v-192a85.333333 85.333333 0 0 1 85.333334-85.333334h554.666666a85.333333 85.333333 0 0 1 85.333334 85.333334z" p-id="33481"></path><path d="M784 395.306667h-103.68a21.333333 21.333333 0 0 0 0 42.666666h103.68a21.333333 21.333333 0 0 0 0-42.666666z" p-id="33482"></path></svg>