<?xml version="1.0" standalone="no"?><!DOCTYPE svg PUBLIC "-//W3C//DTD SVG 1.1//EN" "http://www.w3.org/Graphics/SVG/1.1/DTD/svg11.dtd"><svg t="1704246983416" class="icon" viewBox="0 0 1024 1024" version="1.1" xmlns="http://www.w3.org/2000/svg" p-id="39993" xmlns:xlink="http://www.w3.org/1999/xlink" width="32" height="32"><path d="M543.6 825.3H131.3c-28 0-50.7-22.8-50.8-50.7V141c0-29.9 24.3-54.3 54.3-54.3H261c25.1 0 46.6 17.9 51.2 42.6l20.9 111.9c11.7 62.6 66.4 108 130 108h385.6c29.9 0 54.2 24.3 54.2 54.3v72.4c0 22.2 18 40.3 40.3 40.3 22.2 0 40.3-18 40.3-40.3v-72.4c0-74.3-60.5-134.8-134.8-134.8H463.3c-24.9 0-46.3-17.8-50.9-42.3l-20.9-111.9C379.8 51.8 324.9 6.2 261 6.2H134.8C60.5 6.2 0 66.7 0 141v633.6C0 847 58.9 905.8 131.3 905.9h412.3c22.2 0 40.3-18 40.3-40.3 0-22.3-18-40.3-40.3-40.3z" p-id="39994"></path><path d="M570.4 140.4h322.1c22.2 0 40.3-18 40.3-40.3s-18-40.3-40.3-40.3H570.4c-22.2 0-40.3 18-40.3 40.3s18 40.3 40.3 40.3zM1014.6 717.6l-124-124C877.7 580.7 861 574 844 573.4c-0.9-0.1-1.7-0.1-2.6-0.1-0.9 0-1.7 0-2.6 0.1-16.9 0.6-33.7 7.4-46.7 20.3L668.3 717.6c-12.6 12.6-12.6 33 0 45.6 12.6 12.6 33 12.6 45.6 0l95.4-95.4v317.9c0 17.8 14.4 32.2 32.2 32.2s32.2-14.4 32.2-32.2v-318l95.4 95.4c6.3 6.3 14.5 9.4 22.8 9.4 8.2 0 16.5-3.1 22.8-9.4 12.4-12.6 12.4-33-0.1-45.5z" p-id="39995"></path></svg>