<?xml version="1.0" standalone="no"?><!DOCTYPE svg PUBLIC "-//W3C//DTD SVG 1.1//EN" "http://www.w3.org/Graphics/SVG/1.1/DTD/svg11.dtd"><svg t="1700618561834" class="icon" viewBox="0 0 1024 1024" version="1.1" xmlns="http://www.w3.org/2000/svg" p-id="2156" id="mx_n_1700618561835" width="48" height="48" xmlns:xlink="http://www.w3.org/1999/xlink"><path d="M782 912H242c-71.68 0-130-58.32-130-130V242c0-71.68 58.32-130 130-130h540c71.68 0 130 58.32 130 130v540c0 71.68-58.32 130-130 130zM242 172c-38.59 0-70 31.41-70 70v540c0 38.59 31.41 70 70 70h540c38.59 0 70-31.41 70-70V242c0-38.59-31.41-70-70-70H242z" p-id="2157"></path><path d="M718.2 390.43c-1.74-7.96-5.1-14.25-10.01-18.7-4.8-4.35-11.29-7.2-19.31-8.47-6.61-1.03-15.03-1.56-25.05-1.56H539.5v-61.48c0-9.62-2.64-16.88-7.9-21.61-4.92-4.39-11.92-6.62-20.8-6.62-9.66 0-16.79 2.17-21.78 6.64-5.22 4.68-7.88 11.94-7.88 21.59v61.48H359.22c-10.36 0-18.67 0.7-25.39 2.15-7.59 1.66-13.81 4.63-18.49 8.84-4.99 4.53-8.29 10.81-9.81 18.68-1.26 6.44-1.86 14.27-1.86 23.97V567.4c0 9.39 0.61 17.02 1.87 23.3 1.48 7.46 4.53 13.64 9.03 18.37 4.61 4.84 11.04 8.16 19.08 9.84 6.76 1.42 15.13 2.13 25.58 2.13h121.92v103.21c0 8.86 1.84 15.42 5.64 20.04 5.7 6.91 16.16 7.71 23.54 7.71 10.44 0 17.82-2.6 22.57-7.9 4.38-4.94 6.61-11.44 6.61-19.36v-103.7h124.8c10.44 0 18.81-0.7 25.54-2.13 7.98-1.66 14.43-4.92 19.18-9.66s7.93-10.99 9.45-18.52c1.26-6.3 1.87-13.94 1.87-23.32V415.83c-0.02-10.37-0.72-18.66-2.15-25.4z m-55.26 27.97v145.15c0 0.2 0 0.39-0.01 0.57H539.5V418.6l123.44-0.2z m-181.8 0.22v145.5H361.07v-145.5h120.07z m-121.92-10v9.84c-0.08 0.06-0.17 0.12-0.25 0.18l0.25-10.02z" p-id="2158"></path></svg>